<svg width="54" height="49" viewBox="0 0 54 49" fill="none" xmlns="http://www.w3.org/2000/svg">
<path fill-rule="evenodd" clip-rule="evenodd" d="M25.1801 16.0804C22.0772 12.8412 16.9179 12.7858 13.7462 15.9576L1.53666e-05 29.7037L0.274053 29.9716C3.40823 33.035 8.42381 33.0064 11.5228 29.9074L13.8691 27.5611C16.9933 24.4369 22.0586 24.4369 25.1828 27.5611L27.2559 29.6342C30.3801 32.7584 35.4454 32.7584 38.5696 29.6342L38.6499 29.5539L25.2631 16.1671L25.1801 16.0804Z" fill="#AE544F"/>
<path d="M25.4302 15.5C25.4302 15.5 27.3986 13.6012 28.8405 12.1593C31.0061 9.99363 34.5173 9.99363 36.6829 12.1593L41.938 17.4144C45.0622 20.5385 50.1276 20.5385 53.2518 17.4144L53.3321 17.334L38.2256 2.32487C35.0984 -0.782077 30.0472 -0.773903 26.9302 2.34315L13.9302 15.3431C17.0472 12.2261 22.3031 12.393 25.4302 15.5Z" fill="#AE544F"/>
</svg>
