<svg width="24" height="23" viewBox="0 0 24 23" fill="none" xmlns="http://www.w3.org/2000/svg">
<path fill-rule="evenodd" clip-rule="evenodd" d="M11.3687 7.27534C9.95185 5.79628 7.59604 5.77097 6.14776 7.21925L2.61132e-05 13.367V13.367C1.47877 14.8123 3.84519 14.7988 5.30734 13.3367L5.77478 12.8692C7.43832 11.2057 10.1354 11.2057 11.799 12.8692L12.2293 13.2995C13.6552 14.7254 15.967 14.7254 17.3929 13.2995V13.2995L11.3687 7.27534V7.27534Z" fill="#AE544F"/>
<path d="M11.4438 6.97516C11.4438 6.97516 12.3296 6.12068 12.9785 5.47179C13.953 4.49724 15.5331 4.49724 16.5077 5.47179L18.8725 7.83664C20.2784 9.24256 22.5579 9.24256 23.9638 7.83664L23.9999 7.80048L17.2018 1.04622C15.7946 -0.351943 13.5215 -0.348264 12.1188 1.05444L6.26868 6.90457C7.67138 5.50187 10.0366 5.577 11.4438 6.97516Z" fill="#AE544F"/>
</svg>
